<svg width="34" height="35" viewBox="0 0 34 35" fill="none" xmlns="http://www.w3.org/2000/svg">
<path d="M16.5699 3.51562C11.9933 3.51562 8.28491 7.41637 8.28491 12.2481C8.28491 20.6026 16.5699 31.4981 16.5699 31.4981C16.5699 31.4981 24.855 20.6009 24.855 12.2481C24.855 7.41812 21.1466 3.51562 16.5699 3.51562ZM16.5699 17.0799C15.3834 17.0799 14.2454 16.5821 13.4064 15.696C12.5674 14.8098 12.096 13.608 12.096 12.3549C12.096 11.1017 12.5674 9.8999 13.4064 9.01379C14.2454 8.12769 15.3834 7.62987 16.5699 7.62987C17.7565 7.62987 18.8945 8.12769 19.7335 9.01379C20.5725 9.8999 21.0438 11.1017 21.0438 12.3549C21.0438 13.608 20.5725 14.8098 19.7335 15.696C18.8945 16.5821 17.7565 17.0799 16.5699 17.0799Z" fill="#0F0049"/>
</svg>
