<svg width="27" height="28" viewBox="0 0 27 28" fill="none" xmlns="http://www.w3.org/2000/svg">
<path d="M22.0933 12.8318H24.3027C24.3027 6.84684 20.0243 2.33301 14.3496 2.33301V4.66634C18.8368 4.66634 22.0933 8.09984 22.0933 12.8318Z" fill="#0F0049"/>
<path d="M14.3607 9.33296C16.6839 9.33296 17.6747 10.3795 17.6747 12.833H19.8841C19.8841 9.07046 17.9233 6.99963 14.3607 6.99963V9.33296ZM18.1409 15.6831C17.9286 15.4794 17.6497 15.3707 17.363 15.3801C17.0763 15.3894 16.8043 15.5161 16.6043 15.7333L13.9608 18.6045C13.3245 18.4761 12.0453 18.055 10.7286 16.6678C9.41181 15.276 9.01302 13.9215 8.89482 13.2541L11.6112 10.4611C11.8171 10.2501 11.9372 9.96275 11.9461 9.65987C11.955 9.35699 11.8519 9.06234 11.6587 8.83829L7.57695 4.09813C7.38368 3.87338 7.11507 3.73705 6.82816 3.7181C6.54124 3.69915 6.25864 3.79906 6.04036 3.99663L3.64322 6.16779C3.45224 6.37023 3.33825 6.63965 3.32287 6.92496C3.3063 7.21663 2.99036 14.1256 8.06301 19.4853C12.4883 24.1578 18.0315 24.4996 19.5582 24.4996C19.7813 24.4996 19.9183 24.4926 19.9548 24.4903C20.2249 24.4743 20.4799 24.3534 20.6706 24.1508L22.7253 21.618C22.9125 21.3876 23.0073 21.0892 22.9896 20.7862C22.9718 20.4832 22.8429 20.1994 22.6303 19.9951L18.1409 15.6831Z" fill="#0F0049"/>
</svg>
