<svg width="25" height="26" viewBox="0 0 25 26" fill="none" xmlns="http://www.w3.org/2000/svg">
<g clip-path="url(#clip0_100_960)">
<path d="M22.3104 3.25H2.30797C1.0333 3.25 0 4.34129 0 5.6875V20.3125C0 21.6587 1.0333 22.75 2.30797 22.75H22.3104C23.5851 22.75 24.6184 21.6587 24.6184 20.3125V5.6875C24.6184 4.34129 23.5851 3.25 22.3104 3.25ZM22.3104 5.6875V7.75963C21.2323 8.68684 19.5135 10.1286 15.8391 13.1673C15.0293 13.84 13.4253 15.4561 12.3092 15.4373C11.1933 15.4563 9.58871 13.8398 8.77928 13.1673C5.10542 10.1291 3.38623 8.687 2.30797 7.75963V5.6875H22.3104ZM2.30797 20.3125V10.8874C3.40974 11.8142 4.97219 13.1148 7.35368 15.0843C8.40462 15.958 10.2451 17.8867 12.3092 17.8749C14.3631 17.8867 16.1803 15.9859 17.2642 15.0847C19.6457 13.1152 21.2086 11.8143 22.3104 10.8874V20.3125H2.30797Z" fill="#0F0049"/>
</g>
<defs>
<clipPath id="clip0_100_960">
<rect width="24.6184" height="26" fill="white"/>
</clipPath>
</defs>
</svg>
